<svg id="Layer_1" data-name="Layer 1" xmlns="http://www.w3.org/2000/svg" viewBox="0 0 120 35"><defs><style>.cls-1{fill:#fff;}</style></defs><title>logo</title><path class="cls-1" d="M13.53,32.65a5.43,5.43,0,0,0,3.07-5.27c-.41-3.16-2-3-2-5.36s2.5-6,3.09-6.54.51-.49-.19-.88a2.24,2.24,0,0,0-1.73.12L15,15s-.1-.54-.25-1.48A8.63,8.63,0,0,0,13.4,11s2,.2,2.24-.45a.79.79,0,0,0-.18-1V8.89L15.17,9l-.5,0-.12-.32a1.23,1.23,0,0,1-.68.27c-.35,0-1.59-.14-1.81-.59-.52-1-.24-1.28.67-1.67a2.39,2.39,0,0,1,2.52.59l.12.38a.86.86,0,0,1,.53-.26,1,1,0,0,1,.51.06s.23,0,.47-.62A2.11,2.11,0,0,0,17,5.76,1.92,1.92,0,0,1,17.11,5a1,1,0,0,0-.65-1.09,8,8,0,0,0-2-.38.56.56,0,0,0-.06-.47c-.15-.27-.41-.47-1.18-.8S12.43,1,10.75.4s-5,.7-5,.7A1.35,1.35,0,0,0,5,1C4.56,1,3.8.81,3.71.88S4,1.93,4,1.93a3.74,3.74,0,0,0-1,.94A7.29,7.29,0,0,0,2,6.41a9,9,0,0,1-.65,3c-.12.26,1.36-.21,1.36-.21s-.12.45-.41,1.68-1,3.5-1.21,4,1.43-.21,1.43-.21-.14.76-.57,2.23A19.62,19.62,0,0,1,.36,20c-.15.44,1.73.64,1.73.64A7.92,7.92,0,0,0,.93,27.32c1.4,4.24,4,5.34,4,5.34H1.77v2.12h15.9V32.65H13.53ZM16.73,4.43a.83.83,0,0,1,.05.83c-.08.24-.61-.91-.61-.91C16.41,4.05,16.53,4.23,16.73,4.43Zm-5-.76a1.33,1.33,0,0,1,1-.12c.62.15.47.38.47.38a3.79,3.79,0,0,1-.77.11,2.22,2.22,0,0,1-1-.26ZM7.64,2.34A14,14,0,0,0,7.76,11,32.89,32.89,0,0,0,12,18.23a9.87,9.87,0,0,1-6.19-6.61C4.35,7.31,7.64,2.34,7.64,2.34Zm4.17,26.27s-.09-.35-.15-.26-.23.14-.41.26c-1,.7-2.09-2.93-.55-3.76,0,0,2.13-.06,2.56,1.33S11.81,28.61,11.81,28.61Zm1.3-10.86a10,10,0,0,0-1.81-4.25C6.84,7.62,8.9,3.38,8.9,3.38a10.34,10.34,0,0,0,.11,2A6.63,6.63,0,0,0,10.88,9.6,8.47,8.47,0,0,1,13.11,17.76Z"/><path class="cls-1" d="M28.33,25.51V9.92h2.89l3.44,11q.48,1.54.69,2.31.25-.85.77-2.5L39.6,9.92h2.59V25.51H40.34v-13l-4.22,13H34.38l-4.2-13.27V25.51Z"/><path class="cls-1" d="M45.53,25.51V9.92H56v1.84H47.46v4.77h8v1.83h-8v5.31h8.92v1.84Z"/><path class="cls-1" d="M59.26,25.51V9.92h6.44a8,8,0,0,1,3,.42,3.31,3.31,0,0,1,1.62,1.48,4.67,4.67,0,0,1,.6,2.35,4.08,4.08,0,0,1-1,2.8,4.92,4.92,0,0,1-3.09,1.45,5,5,0,0,1,1.16.78,10.57,10.57,0,0,1,1.59,2.07l2.53,4.24H69.65l-1.92-3.24q-.84-1.4-1.39-2.15a4.57,4.57,0,0,0-1-1,2.81,2.81,0,0,0-.88-.41,5.41,5.41,0,0,0-1.07-.07H61.19v6.92Zm1.92-8.71h4.13a5.8,5.8,0,0,0,2.06-.29,2.22,2.22,0,0,0,1.13-.94,2.66,2.66,0,0,0,.39-1.4,2.4,2.4,0,0,0-.75-1.82,3.34,3.34,0,0,0-2.36-.71h-4.6Z"/><path class="cls-1" d="M74,25.51V9.92h1.92V23.67h7.16v1.84Z"/><path class="cls-1" d="M85.91,25.51V9.92h1.92V25.51Z"/><path class="cls-1" d="M90.84,17.92a8.86,8.86,0,0,1,1.94-6.08,6.39,6.39,0,0,1,5-2.2,6.55,6.55,0,0,1,6.09,3.91,9.92,9.92,0,0,1,.85,4.18,9.74,9.74,0,0,1-.89,4.24,6.36,6.36,0,0,1-2.53,2.83,6.84,6.84,0,0,1-3.53,1,6.52,6.52,0,0,1-3.67-1.06,6.69,6.69,0,0,1-2.45-2.9A9.34,9.34,0,0,1,90.84,17.92Zm2,0a6.53,6.53,0,0,0,1.41,4.44,4.7,4.7,0,0,0,7.12,0,6.94,6.94,0,0,0,1.4-4.65,8.5,8.5,0,0,0-.6-3.32,4.86,4.86,0,0,0-1.75-2.2,4.51,4.51,0,0,0-2.59-.78,4.74,4.74,0,0,0-3.51,1.5Q92.82,14.43,92.82,17.95Z"/><path class="cls-1" d="M107.39,25.51V9.92h2L117,22.16V9.92h1.84V25.51h-2l-7.63-12.25V25.51Z"/></svg>