<svg id="Layer_1" data-name="Layer 1" xmlns="http://www.w3.org/2000/svg" viewBox="0 0 115.3 25.94"><defs><style>.cls-1{fill:#fff;}</style></defs><title>merlion_logo</title><path class="cls-1" d="M12.06,24.18a4,4,0,0,0,2.27-3.9c-.3-2.34-1.49-2.24-1.49-4s1.85-4.42,2.29-4.84.38-.36-.14-.65a1.65,1.65,0,0,0-1.28.09l-.57.23s-.08-.4-.18-1.1a6.39,6.39,0,0,0-1-1.9s1.46.15,1.65-.33a.59.59,0,0,0-.13-.72V6.6l-.22.11-.37,0-.09-.24a.91.91,0,0,1-.5.2c-.26,0-1.17-.1-1.34-.43-.38-.76-.18-.94.49-1.23a1.77,1.77,0,0,1,1.86.44l.09.28a.64.64,0,0,1,.39-.19.75.75,0,0,1,.38,0s.17,0,.35-.46a1.56,1.56,0,0,0,.09-.85,1.42,1.42,0,0,1,.09-.56.74.74,0,0,0-.48-.81,5.89,5.89,0,0,0-1.48-.28.41.41,0,0,0,0-.35c-.11-.2-.3-.35-.87-.59S11.25.8,10,.33,6.3.84,6.3.84A1,1,0,0,0,5.73.73C5.43.78,4.86.63,4.8.67s.22.78.22.78a2.76,2.76,0,0,0-.72.7,5.4,5.4,0,0,0-.78,2.61A6.65,6.65,0,0,1,3,7c-.09.19,1-.15,1-.15s-.09.33-.31,1.25S3,10.65,2.84,11s1.06-.15,1.06-.15-.11.56-.42,1.65A14.51,14.51,0,0,1,2.32,14.8c-.11.33,1.28.47,1.28.47a5.86,5.86,0,0,0-.86,5c1,3.14,2.94,3.95,2.94,3.95H3.36v1.57H15.12V24.18H12.06ZM14.43,3.31a.62.62,0,0,1,0,.61c-.06.17-.45-.67-.45-.67C14.19,3,14.28,3.16,14.43,3.31ZM10.7,2.74a1,1,0,0,1,.74-.09c.46.11.35.28.35.28a2.8,2.8,0,0,1-.57.08,1.64,1.64,0,0,1-.74-.19Zm-3-1a10.38,10.38,0,0,0,.09,6.39,24.33,24.33,0,0,0,3.12,5.36A7.3,7.3,0,0,1,6.33,8.62C5.27,5.43,7.7,1.76,7.7,1.76Zm3.09,19.43s-.07-.26-.11-.19-.17.11-.3.19c-.76.52-1.54-2.17-.41-2.78,0,0,1.58,0,1.89,1S10.79,21.19,10.79,21.19Zm1-8A7.39,7.39,0,0,0,10.41,10c-3.3-4.35-1.78-7.5-1.78-7.5A7.65,7.65,0,0,0,8.72,4,4.91,4.91,0,0,0,10.1,7.13,6.26,6.26,0,0,1,11.75,13.16Z"/><path class="cls-1" d="M25.94,20.81V5.56h2.83l3.37,10.8q.47,1.51.68,2.26.24-.83.76-2.45L37,5.56h2.53V20.81H37.7V8L33.57,20.81h-1.7l-4.11-13v13Z"/><path class="cls-1" d="M42.78,20.81V5.56H53.06v1.8h-8.4V12h7.87v1.79H44.67V19h8.73v1.8Z"/><path class="cls-1" d="M56.22,20.81V5.56h6.3A7.87,7.87,0,0,1,65.42,6,3.24,3.24,0,0,1,67,7.42a4.57,4.57,0,0,1,.59,2.3,4,4,0,0,1-1,2.74,4.81,4.81,0,0,1-3,1.42,4.87,4.87,0,0,1,1.14.76,10.34,10.34,0,0,1,1.56,2l2.47,4.15H66.38L64.5,17.64q-.82-1.37-1.36-2.1a4.47,4.47,0,0,0-1-1,2.75,2.75,0,0,0-.86-.41,5.3,5.3,0,0,0-1-.07H58.1v6.77Zm1.88-8.52h4a5.67,5.67,0,0,0,2-.29,2.17,2.17,0,0,0,1.11-.92,2.6,2.6,0,0,0,.38-1.37,2.35,2.35,0,0,0-.73-1.78,3.27,3.27,0,0,0-2.31-.7H58.1Z"/><path class="cls-1" d="M70.66,20.81V5.56h1.88V19h7v1.8Z"/><path class="cls-1" d="M82.3,20.81V5.56h1.88V20.81Z"/><path class="cls-1" d="M87.12,13.38A8.67,8.67,0,0,1,89,7.43a6.25,6.25,0,0,1,4.91-2.15,6.41,6.41,0,0,1,6,3.82,9.71,9.71,0,0,1,.83,4.1,9.54,9.54,0,0,1-.87,4.15,6.23,6.23,0,0,1-2.47,2.77,6.7,6.7,0,0,1-3.45.94,6.38,6.38,0,0,1-3.59-1,6.55,6.55,0,0,1-2.4-2.84A9.14,9.14,0,0,1,87.12,13.38Zm1.94,0a6.39,6.39,0,0,0,1.38,4.35,4.6,4.6,0,0,0,7,0,6.79,6.79,0,0,0,1.37-4.55,8.32,8.32,0,0,0-.59-3.25,4.76,4.76,0,0,0-1.72-2.15A4.42,4.42,0,0,0,93.94,7,4.64,4.64,0,0,0,90.5,8.5Q89.06,10,89.06,13.41Z"/><path class="cls-1" d="M103.33,20.81V5.56h1.93l7.47,12v-12h1.8V20.81H112.6l-7.47-12v12Z"/></svg>